<svg xmlns="http://www.w3.org/2000/svg" width="19" height="14" fill="none"><g clip-path="url(#a)"><path fill="#fff" d="M18.26 1.148C17.573.333 16.306 0 13.89 0H5.11C2.638 0 1.35.354.667 1.222 0 2.068 0 3.315 0 5.041v3.29c0 3.343.79 5.04 5.11 5.04h8.78c2.096 0 3.258-.293 4.01-1.013.771-.738 1.1-1.942 1.1-4.028V5.04c0-1.82-.052-3.073-.74-3.892ZM12.197 7.14 8.212 9.223a.612.612 0 0 1-.897-.543V4.527a.613.613 0 0 1 .895-.544l3.987 2.07a.613.613 0 0 1 .001 1.087Z"/></g><defs><clipPath id="a"><path fill="#fff" d="M0 0h19v14H0z"/></clipPath></defs></svg>