<svg xmlns="http://www.w3.org/2000/svg" width="10" height="18" fill="none"><g clip-path="url(#a)"><path fill="#90A4B3" d="M9.365.004 7.031 0C4.41 0 2.714 1.739 2.714 4.43v2.042H.367A.367.367 0 0 0 0 6.84V9.8c0 .203.164.367.367.367h2.347v7.467c0 .203.164.367.367.367h3.062a.367.367 0 0 0 .367-.367v-7.467h2.744a.367.367 0 0 0 .367-.367l.001-2.96a.368.368 0 0 0-.367-.367H6.51V4.741c0-.832.198-1.255 1.282-1.255h1.573a.367.367 0 0 0 .367-.367V.37a.367.367 0 0 0-.367-.367Z"/></g><defs><clipPath id="a"><path fill="#fff" d="M0 0h10v18H0z"/></clipPath></defs></svg>