<svg xmlns="http://www.w3.org/2000/svg" width="335" height="75" fill="none"><rect width="335" height="75" fill="#DD9428" rx="37.5"/><path fill="#311" d="M88.472 44.2c-1.094 0-2.1-.18-3.02-.54a7.39 7.39 0 0 1-2.4-1.5 6.936 6.936 0 0 1-1.58-2.28c-.374-.88-.56-1.84-.56-2.88 0-1.04.186-1.993.56-2.86.373-.88.9-1.64 1.58-2.28a7.22 7.22 0 0 1 2.4-1.52c.92-.36 1.92-.54 3-.54 1.093 0 2.093.18 3 .54.92.36 1.72.867 2.4 1.52a6.67 6.67 0 0 1 1.58 2.28c.373.867.56 1.82.56 2.86 0 1.04-.187 2-.56 2.88a6.67 6.67 0 0 1-1.58 2.28 7.39 7.39 0 0 1-2.4 1.5c-.907.36-1.9.54-2.98.54Zm-.02-2.28c.706 0 1.36-.12 1.96-.36.6-.24 1.12-.58 1.56-1.02.44-.453.78-.973 1.02-1.56.253-.6.38-1.26.38-1.98s-.127-1.373-.38-1.96a4.59 4.59 0 0 0-1.02-1.56c-.44-.453-.96-.8-1.56-1.04a5.23 5.23 0 0 0-1.96-.36c-.707 0-1.36.12-1.96.36a4.709 4.709 0 0 0-1.56 1.04c-.44.44-.787.96-1.04 1.56-.24.587-.36 1.24-.36 1.96 0 .707.12 1.36.36 1.96.253.6.6 1.127 1.04 1.58.44.44.96.78 1.56 1.02.6.24 1.253.36 1.96.36Zm14.994 2.22c-1.12 0-2.12-.233-3-.7a5.34 5.34 0 0 1-2.04-1.96c-.493-.827-.74-1.767-.74-2.82 0-1.067.247-2.007.74-2.82a5.196 5.196 0 0 1 2.04-1.94c.88-.467 1.88-.7 3-.7 1.04 0 1.954.213 2.74.64a4.117 4.117 0 0 1 1.82 1.84l-1.92 1.12c-.32-.507-.713-.88-1.18-1.12a3.112 3.112 0 0 0-1.48-.36c-.613 0-1.166.133-1.66.4a2.86 2.86 0 0 0-1.16 1.16c-.28.493-.42 1.087-.42 1.78 0 .693.14 1.293.42 1.8.28.493.667.873 1.16 1.14.494.267 1.047.4 1.66.4.534 0 1.027-.12 1.48-.36.467-.24.86-.613 1.18-1.12l1.92 1.12c-.413.8-1.02 1.42-1.82 1.86-.786.427-1.7.64-2.74.64Zm8.903-.14v-9.16l.58.6h-4.34v-2.12h10v2.12h-4.32l.58-.6V44h-2.5Zm14.534 0v-2.16l-.14-.46V37.6c0-.733-.22-1.3-.66-1.7-.44-.413-1.107-.62-2-.62-.6 0-1.194.093-1.78.28a4.356 4.356 0 0 0-1.46.78l-.98-1.82c.573-.44 1.253-.767 2.04-.98.8-.227 1.626-.34 2.48-.34 1.546 0 2.74.373 3.58 1.12.853.733 1.28 1.873 1.28 3.42V44h-2.36Zm-3.36.14c-.8 0-1.5-.133-2.1-.4-.6-.28-1.067-.66-1.4-1.14a2.985 2.985 0 0 1-.48-1.66c0-.6.14-1.14.42-1.62.293-.48.766-.86 1.42-1.14.653-.28 1.52-.42 2.6-.42h3.1v1.66h-2.92c-.854 0-1.427.14-1.72.42-.294.267-.44.6-.44 1 0 .453.18.813.54 1.08.36.267.86.4 1.5.4.613 0 1.16-.14 1.64-.42.493-.28.846-.693 1.06-1.24l.42 1.5c-.24.627-.674 1.113-1.3 1.46-.614.347-1.394.52-2.34.52Zm8.813-.14V33.32h5.22c1.294 0 2.307.24 3.04.72.747.48 1.12 1.16 1.12 2.04 0 .867-.346 1.547-1.04 2.04-.693.48-1.613.72-2.76.72l.3-.62c1.294 0 2.254.24 2.88.72.64.467.96 1.153.96 2.06 0 .947-.353 1.687-1.06 2.22-.706.52-1.78.78-3.22.78h-5.44Zm2.38-1.82h2.86c.68 0 1.194-.107 1.54-.32.347-.227.52-.567.52-1.02 0-.48-.16-.833-.48-1.06-.32-.227-.82-.34-1.5-.34h-2.94v2.74Zm0-4.4h2.62c.64 0 1.12-.113 1.44-.34.334-.24.5-.573.5-1 0-.44-.166-.767-.5-.98-.32-.213-.8-.32-1.44-.32h-2.62v2.64ZM144.719 44V33.32h2.5v7.04l5.9-7.04h2.28V44h-2.5v-7.04l-5.88 7.04h-2.3Zm16.263 0v-9.16l.58.6h-4.34v-2.12h10v2.12h-4.32l.58-.6V44h-2.5Zm13.413-7.16c1.374 0 2.42.307 3.14.92.72.613 1.08 1.48 1.08 2.6 0 1.16-.4 2.067-1.2 2.72-.8.64-1.926.953-3.38.94l-5-.02V33.32h2.5v3.5l2.86.02Zm-.58 5.34c.734.013 1.294-.14 1.68-.46.387-.32.58-.787.58-1.4 0-.613-.193-1.053-.58-1.32-.373-.28-.933-.427-1.68-.44l-2.28-.02v3.62l2.28.02Zm15.905 2c.987 0 1.86-.14 2.62-.42.773-.28 1.38-.667 1.82-1.16.44-.507.66-1.087.66-1.74 0-.813-.34-1.453-1.02-1.92-.68-.48-1.613-.72-2.8-.72l-.08.54c.693 0 1.307-.113 1.84-.34.547-.227.973-.54 1.28-.94a2.2 2.2 0 0 0 .48-1.38c0-.613-.22-1.147-.66-1.6-.44-.453-1.04-.8-1.8-1.04s-1.627-.34-2.6-.3a8.21 8.21 0 0 0-1.94.28c-.64.16-1.3.393-1.98.7l.64 1.84c.587-.253 1.16-.447 1.72-.58a7.325 7.325 0 0 1 1.66-.2c.507 0 .94.053 1.3.16.36.093.633.24.82.44.2.187.3.407.3.66 0 .253-.08.473-.24.66-.16.187-.393.327-.7.42-.293.093-.653.14-1.08.14h-1.86v1.68h2.06c.68 0 1.2.113 1.56.34.373.213.56.533.56.96 0 .293-.113.553-.34.78-.213.227-.52.4-.92.52-.4.107-.88.16-1.44.16-.653 0-1.307-.08-1.96-.24a6.914 6.914 0 0 1-1.76-.68l-.7 1.86c.64.36 1.353.64 2.14.84.8.187 1.607.28 2.42.28Zm14.155-.18v-2.16l-.14-.46V37.6c0-.733-.22-1.3-.66-1.7-.44-.413-1.107-.62-2-.62-.6 0-1.193.093-1.78.28a4.366 4.366 0 0 0-1.46.78l-.98-1.82c.573-.44 1.253-.767 2.04-.98.8-.227 1.627-.34 2.48-.34 1.547 0 2.74.373 3.58 1.12.853.733 1.28 1.873 1.28 3.42V44h-2.36Zm-3.36.14c-.8 0-1.5-.133-2.1-.4-.6-.28-1.067-.66-1.4-1.14a2.985 2.985 0 0 1-.48-1.66c0-.6.14-1.14.42-1.62.293-.48.767-.86 1.42-1.14.653-.28 1.52-.42 2.6-.42h3.1v1.66h-2.92c-.853 0-1.427.14-1.72.42-.293.267-.44.6-.44 1 0 .453.18.813.54 1.08.36.267.86.4 1.5.4.613 0 1.16-.14 1.64-.42a2.37 2.37 0 0 0 1.06-1.24l.42 1.5c-.24.627-.673 1.113-1.3 1.46-.613.347-1.393.52-2.34.52Zm15.593-.14v-3.64l.36.42h-3.2c-1.466 0-2.62-.307-3.46-.92-.826-.627-1.24-1.527-1.24-2.7 0-1.253.44-2.207 1.32-2.86.894-.653 2.08-.98 3.56-.98h4.9V44h-2.24Zm-7.68 0 2.88-4.08h2.56l-2.76 4.08h-2.68Zm7.68-4.44v-4.8l.36.66h-2.94c-.773 0-1.373.147-1.8.44-.413.28-.62.74-.62 1.38 0 1.2.78 1.8 2.34 1.8h3.02l-.36.52Zm5.603 4.44V33.32h5.22c1.294 0 2.307.24 3.04.72.747.48 1.12 1.16 1.12 2.04 0 .867-.346 1.547-1.04 2.04-.693.48-1.613.72-2.76.72l.3-.62c1.294 0 2.254.24 2.88.72.64.467.96 1.153.96 2.06 0 .947-.353 1.687-1.06 2.22-.706.52-1.78.78-3.22.78h-5.44Zm2.38-1.82h2.86c.68 0 1.194-.107 1.54-.32.347-.227.52-.567.52-1.02 0-.48-.16-.833-.48-1.06-.32-.227-.82-.34-1.5-.34h-2.94v2.74Zm0-4.4h2.62c.64 0 1.12-.113 1.44-.34.334-.24.5-.573.5-1 0-.44-.166-.767-.5-.98-.32-.213-.8-.32-1.44-.32h-2.62v2.64ZM241.754 44l-3.86-5.12 2.04-1.26 4.76 6.38h-2.94Zm-7.66 0V33.32h2.5V44h-2.5Zm1.76-4.28v-2.08h3.62v2.08h-3.62Zm4.32-.76-2.34-.28 3.92-5.36h2.68l-4.26 5.64Zm6.638 9.06c-.52 0-1.04-.087-1.56-.26-.52-.173-.953-.413-1.3-.72l1-1.84c.253.227.54.407.86.54.32.133.647.2.98.2.453 0 .82-.113 1.1-.34.28-.227.54-.607.78-1.14l.62-1.4.2-.3 4.04-9.44h2.4l-5 11.54c-.333.8-.707 1.433-1.12 1.9-.4.467-.853.793-1.36.98a4.6 4.6 0 0 1-1.64.28Zm2.2-3.64-4.82-11.06h2.6l3.92 9.22-1.7 1.84Z"/></svg>